HIERARCHY
ROOT hip
{
  OFFSET 0 0 0
  CHANNELS 6 Xposition Yposition Zposition Zrotation Yrotation Xrotation
  JOINT abdomen
  {
    OFFSET 0 20.6881 -0.73152
    CHANNELS 3 Zrotation Xrotation Yrotation
    JOINT chest
    {
      OFFSET 0 11.7043 -0.48768
      CHANNELS 3 Zrotation Xrotation Yrotation
      JOINT neck
      {
        OFFSET 0 22.1894 -2.19456
        CHANNELS 3 Zrotation Xrotation Yrotation
        JOINT head
        {
          OFFSET -0.24384 7.07133 1.2192
          CHANNELS 3 Zrotation Xrotation Yrotation
          JOINT leftEye
          {
            OFFSET 4.14528 8.04674 8.04672
            CHANNELS 3 Zrotation Xrotation Yrotation
            End Site
            {
              OFFSET 1 0 0
            }
          }
          JOINT rightEye
          {
            OFFSET -3.6576 8.04674 8.04672
            CHANNELS 3 Zrotation Xrotation Yrotation
            End Site
            {
              OFFSET 1 0 0
            }
          }
        }
      }
      JOINT rCollar
      {
        OFFSET -2.68224 19.2634 -4.8768
        CHANNELS 3 Zrotation Xrotation Yrotation
        JOINT rShldr
        {
          OFFSET -8.77824 -1.95073 1.46304
          CHANNELS 3 Zrotation Xrotation Yrotation
          JOINT rForeArm
          {
            OFFSET -28.1742 -1.7115 0.48768
            CHANNELS 3 Zrotation Xrotation Yrotation
            JOINT rHand
            {
              OFFSET -22.5879 0.773209 7.07136
              CHANNELS 3 Zrotation Xrotation Yrotation
              JOINT rThumb1
              {
                OFFSET -1.2192 -0.487915 3.41376
                CHANNELS 3 Zrotation Xrotation Yrotation
                JOINT rThumb2
                {
                  OFFSET -3.37035 -0.52449 3.41376
                  CHANNELS 3 Zrotation Xrotation Yrotation
                  End Site
                  {
                    OFFSET -1.78271 -1.18214 1.43049
                  }
                }
              }
              JOINT rIndex1
              {
                OFFSET -7.75947 0.938293 5.60832
                CHANNELS 3 Zrotation Xrotation Yrotation
                JOINT rIndex2
                {
                  OFFSET -2.54057 -0.884171 1.56538
                  CHANNELS 3 Zrotation Xrotation Yrotation
                  End Site
                  {
                    OFFSET -1.62519 -0.234802 1.16502
                  }
                }
              }
              JOINT rMid1
              {
                OFFSET -8.24714 1.18213 3.41376
                CHANNELS 3 Zrotation Xrotation Yrotation
                JOINT rMid2
                {
                  OFFSET -3.10165 -0.590103 1.0647
                  CHANNELS 3 Zrotation Xrotation Yrotation
                  End Site
                  {
                    OFFSET -2.48547 -0.328903 0.83742
                  }
                }
              }
              JOINT rRing1
              {
                OFFSET -8.82822 0.546677 1.51678
                CHANNELS 3 Zrotation Xrotation Yrotation
                JOINT rRing2
                {
                  OFFSET -2.60934 -0.819778 -0.0198488
                  CHANNELS 3 Zrotation Xrotation Yrotation
                  End Site
                  {
                    OFFSET -2.33842 -0.294052 0.168128
                  }
                }
              }
              JOINT rPinky1
              {
                OFFSET -8.27202 -0.0477905 -0.4584
                CHANNELS 3 Zrotation Xrotation Yrotation
                JOINT rPinky2
                {
                  OFFSET -1.82734 -0.647385 -0.700984
                  CHANNELS 3 Zrotation Xrotation Yrotation
                  End Site
                  {
                    OFFSET -1.69225 -0.51767 -0.607171
                  }
                }
              }
            }
          }
        }
      }
      JOINT lCollar
      {
        OFFSET 2.68224 19.2634 -4.8768
        CHANNELS 3 Zrotation Xrotation Yrotation
        JOINT lShldr
        {
          OFFSET 8.77824 -1.95073 1.46304
          CHANNELS 3 Zrotation Xrotation Yrotation
          JOINT lForeArm
          {
            OFFSET 28.1742 -1.7115 0.48768
            CHANNELS 3 Zrotation Xrotation Yrotation
            JOINT lHand
            {
              OFFSET 22.5879 0.773209 7.07136
              CHANNELS 3 Zrotation Xrotation Yrotation
              JOINT lThumb1
              {
                OFFSET 1.2192 -0.487915 3.41376
                CHANNELS 3 Zrotation Xrotation Yrotation
                JOINT lThumb2
                {
                  OFFSET 3.37035 -0.52449 3.41376
                  CHANNELS 3 Zrotation Xrotation Yrotation
                  End Site
                  {
                    OFFSET 1.78271 -1.18214 1.43049
                  }
                }
              }
              JOINT lIndex1
              {
                OFFSET 7.75947 0.938293 5.60832
                CHANNELS 3 Zrotation Xrotation Yrotation
                JOINT lIndex2
                {
                  OFFSET 2.54057 -0.884171 1.56538
                  CHANNELS 3 Zrotation Xrotation Yrotation
                  End Site
                  {
                    OFFSET 1.62519 -0.234802 1.16502
                  }
                }
              }
              JOINT lMid1
              {
                OFFSET 8.24714 1.18213 3.41376
                CHANNELS 3 Zrotation Xrotation Yrotation
                JOINT lMid2
                {
                  OFFSET 3.10165 -0.590103 1.0647
                  CHANNELS 3 Zrotation Xrotation Yrotation
                  End Site
                  {
                    OFFSET 2.48547 -0.328903 0.83742
                  }
                }
              }
              JOINT lRing1
              {
                OFFSET 8.82822 0.546677 1.51678
                CHANNELS 3 Zrotation Xrotation Yrotation
                JOINT lRing2
                {
                  OFFSET 2.60934 -0.819778 -0.0198488
                  CHANNELS 3 Zrotation Xrotation Yrotation
                  End Site
                  {
                    OFFSET 2.33842 -0.294052 0.168128
                  }
                }
              }
              JOINT lPinky1
              {
                OFFSET 8.27202 -0.0477905 -0.4584
                CHANNELS 3 Zrotation Xrotation Yrotation
                JOINT lPinky2
                {
                  OFFSET 1.82734 -0.647385 -0.700984
                  CHANNELS 3 Zrotation Xrotation Yrotation
                  End Site
                  {
                    OFFSET 1.69225 -0.51767 -0.607171
                  }
                }
              }
            }
          }
        }
      }
    }
  }
  JOINT rButtock
  {
    OFFSET -8.77824 4.35084 1.2192
    CHANNELS 3 Zrotation Xrotation Yrotation
    JOINT rThigh
    {
      OFFSET 0 -1.70687 -2.19456
      CHANNELS 3 Zrotation Xrotation Yrotation
      JOINT rShin
      {
        OFFSET 0 -36.8199 0.73152
        CHANNELS 3 Zrotation Xrotation Yrotation
        JOINT rFoot
        {
          OFFSET 0.73152 -45.1104 -5.12064
          CHANNELS 3 Zrotation Xrotation Yrotation
          End Site
          {
            OFFSET -1.1221 -3.69964 12.103
          }
        }
      }
    }
  }
  JOINT lButtock
  {
    OFFSET 8.77824 4.35084 1.2192
    CHANNELS 3 Zrotation Xrotation Yrotation
    JOINT lThigh
    {
      OFFSET 0 -1.70687 -2.19456
      CHANNELS 3 Zrotation Xrotation Yrotation
      JOINT lShin
      {
        OFFSET 0 -36.8199 0.73152
        CHANNELS 3 Zrotation Xrotation Yrotation
        JOINT lFoot
        {
          OFFSET -0.73152 -45.1104 -5.12064
          CHANNELS 3 Zrotation Xrotation Yrotation
          End Site
          {
            OFFSET 1.1221 -3.69964 12.103
          }
        }
      }
    }
  }
}
MOTION
Frames:	6
Frame Time:	0.00833333
54.2882 85.2022 -81.8529 0.0 0.0 0.0 0.602241 -0.00285568 0.0171684 0.166047 -0.00431787 0.0287696 -1.38196e-14 7.95139e-16 5.59081e-17 -4.14559e-14 9.54166e-15 1.50642e-16 -0.0 0.0 0.0 -0.0 0.0 0.0 -6.85957e-15 8.92978e-18 1.49089e-16 -1.42402e-13 6.83322e-17 7.95139e-16 -2.48575e-12 7.53394e-13 2.54444e-14 -2.8467e-11 -6.95548e-13 7.31528e-14 -6.7145e-11 1.25841e-13 2.25819e-13 -1.15966e-10 2.22639e-13 3.86437e-13 -6.71407e-11 1.27222e-13 2.19458e-13 7.73091 5.47488 0.417314 -6.71453e-11 1.26228e-13 2.25819e-13 2.90554 0.965183 0.102902 -6.71373e-11 1.25831e-13 2.21844e-13 10.2786 0.731801 0.0259123 -6.71465e-11 1.26427e-13 2.25819e-13 2.22167 -0.733487 -0.20892 -6.95642e-15 9.12391e-18 -4.96962e-17 -1.46324e-13 -2.42269e-16 -9.93923e-16 -2.48844e-12 -7.37094e-13 3.18055e-14 -2.84567e-11 7.79857e-13 6.04305e-14 -6.71247e-11 9.41813e-14 2.16278e-13 -1.15913e-10 1.65389e-13 3.95184e-13 -6.71288e-11 9.54166e-14 2.3218e-13 -7.73091 5.47488 -0.417314 -6.71241e-11 9.41245e-14 2.25819e-13 -2.90554 0.965183 -0.102902 -6.71337e-11 9.42239e-14 2.25819e-13 -10.2786 0.731801 -0.0259123 -6.71175e-11 9.54166e-14 2.22639e-13 -2.22167 -0.733487 0.20892 -2.03217e-16 0.0 -3.88251e-19 0.985456 -4.60218 -0.0812416 -0.00202245 2.78417 -0.00803935 -0.532634 1.81803 0.0982273 2.03217e-16 0.0 3.88251e-19 -0.0701629 -2.29252 0.0218606 0.0084667 -1.39935 0.0723342 0.526177 3.69178 -0.136086
57.606 84.0387 -86.0082 6.9818 76.7317 10.8866 -1.83821 -0.988603 -0.858686 0.754947 0.701392 -0.20472 -4.53981 5.58723 -5.14495 8.75172 -2.77292 -9.83548 -0.0 0.0 0.0 -0.0 0.0 0.0 3.34855e-14 -3.42246e-13 -3.96214e-14 19.7737 1.19724 0.279369 -3.68203 -1.57867 5.84925 0.027182 3.65901 0.51046 -3.48772e-10 -4.16857e-11 1.94516e-10 -6.00075e-10 -7.66013e-11 3.39209e-10 -3.48768e-10 -4.16853e-11 1.94508e-10 7.73091 5.47488 0.417314 -3.48772e-10 -4.16824e-11 1.94515e-10 2.90554 0.965183 0.102902 -3.48766e-10 -4.16858e-11 1.94514e-10 10.2786 0.731801 0.0259123 -3.48775e-10 -4.16832e-11 1.9452e-10 2.22167 -0.733487 -0.20892 3.33899e-14 -3.42243e-13 -3.98055e-14 -22.2262 1.9088 1.33392 4.42915 -2.05475 -6.87015 -0.00128751 -0.796095 0.111845 -7.19738e-10 6.0173e-11 -3.82079e-10 -1.24413e-09 1.04304e-10 -6.60693e-10 -7.19744e-10 6.0173e-11 -3.82071e-10 -7.73091 5.47488 -0.417314 -7.19739e-10 6.01718e-11 -3.82073e-10 -2.90554 0.965183 -0.102902 -7.19749e-10 6.01712e-11 -3.82073e-10 -10.2786 0.731801 -0.0259123 -7.19732e-10 6.01718e-11 -3.82075e-10 -2.22167 -0.733487 0.20892 -2.03217e-16 0.0 -3.88251e-19 -1.13293 -7.0942 3.55378 0.00884562 8.74063 0.0977824 -0.988912 -1.33557 -5.30382 2.03217e-16 0.0 3.88251e-19 0.345224 -4.29695 -3.29875 0.00114392 4.0616 -0.0280145 0.553899 -0.730524 0.8473
57.6579 84.0508 -86.0668 8.2812 76.6852 11.9906 -4.45407 -2.0337 -1.78583 1.38126 1.44529 -0.451505 -8.23092 11.3527 -10.7429 16.9925 -5.44845 -20.297 -0.0 0.0 0.0 -0.0 0.0 0.0 7.81079e-14 -7.20345e-13 -8.0983e-14 40.6717 2.45638 0.570229 -7.22647 -3.19304 12.0477 -0.0155677 7.53323 1.05805 -6.68333e-10 -1.08047e-10 4.22378e-10 -1.1493e-09 -1.96414e-10 7.36436e-10 -6.68329e-10 -1.08048e-10 4.22368e-10 7.73091 5.47488 0.417314 -6.68334e-10 -1.08041e-10 4.22375e-10 2.90554 0.965183 0.102902 -6.6833e-10 -1.08048e-10 4.22378e-10 10.2786 0.731801 0.0259123 -6.68339e-10 -1.08043e-10 4.22385e-10 2.22167 -0.733487 -0.20892 7.80115e-14 -7.20339e-13 -8.11507e-14 -45.8133 3.92983 2.75394 8.5795 -4.1282 -14.1607 0.000730908 -1.63586 0.229898 -1.45255e-09 1.33163e-10 -8.12756e-10 -2.51097e-09 2.30768e-10 -1.40545e-09 -1.45256e-09 1.33162e-10 -8.12756e-10 -7.73091 5.47488 -0.417314 -1.45255e-09 1.33161e-10 -8.12754e-10 -2.90554 0.965183 -0.102902 -1.45256e-09 1.3316e-10 -8.12754e-10 -10.2786 0.731801 -0.0259123 -1.45254e-09 1.3316e-10 -8.12755e-10 -2.22167 -0.733487 0.20892 -2.03217e-16 0.0 -3.88251e-19 -3.02759 -9.67653 7.4443 -0.00437443 15.0369 0.214628 -2.11518 -4.5944 -11.0466 2.03217e-16 0.0 3.88251e-19 0.528077 -6.38736 -6.83642 0.0144075 9.83602 -0.135976 0.749428 -5.40224 1.899
57.6739 84.0541 -86.0846 8.731 76.672 12.3815 -6.80958 -2.95736 -2.61349 1.95001 2.11268 -0.672109 -10.5451 16.2109 -16.0141 23.5202 -7.34369 -29.7397 -0.0 0.0 0.0 -0.0 0.0 0.0 1.14176e-13 -1.02676e-12 -1.19162e-13 59.2861 3.59137 0.839573 -10.0933 -4.53895 17.5981 -0.117123 10.9735 1.55673 -9.12026e-10 -1.25309e-10 5.83097e-10 -1.56829e-09 -2.30249e-10 1.01685e-09 -9.12021e-10 -1.2531e-10 5.83086e-10 7.73091 5.47488 0.417314 -9.12026e-10 -1.253e-10 5.83094e-10 2.90554 0.965183 0.102902 -9.12024e-10 -1.25309e-10 5.83098e-10 10.2786 0.731801 0.0259123 -9.12033e-10 -1.25302e-10 5.83108e-10 2.22167 -0.733487 -0.20892 1.14082e-13 -1.02675e-12 -1.19317e-13 -66.946 5.71394 4.01954 11.8382 -5.81049 -20.7084 0.00546848 -2.38825 0.335794 -2.02497e-09 1.80331e-10 -1.14667e-09 -3.50055e-09 3.12581e-10 -1.98287e-09 -2.02498e-09 1.80328e-10 -1.14668e-09 -7.73091 5.47488 -0.417314 -2.02497e-09 1.80327e-10 -1.14667e-09 -2.90554 0.965183 -0.102902 -2.02498e-09 1.80325e-10 -1.14667e-09 -10.2786 0.731801 -0.0259123 -2.02496e-09 1.80325e-10 -1.14667e-09 -2.22167 -0.733487 0.20892 -2.03217e-16 0.0 -3.88251e-19 -4.40932 -11.9033 10.9805 -0.0394035 20.6533 0.327017 -3.67221 -7.35773 -16.2409 2.03217e-16 0.0 3.88251e-19 0.476765 -8.20197 -10.0156 0.045223 14.9834 -0.236498 1.06885 -9.56375 2.85298
57.6761 84.0558 -86.0771 8.6605 76.7099 12.3015 -8.44969 -3.58007 -3.18942 2.36278 2.58892 -0.826869 -11.6189 19.3263 -19.9105 27.6682 -8.22897 -36.4075 -0.0 0.0 0.0 -0.0 0.0 0.0 1.28857e-13 -1.15395e-12 -1.49387e-13 72.2152 4.41628 1.05383 -11.9329 -5.40161 21.48 -0.223093 13.3323 1.90866 -9.66046e-10 -1.98188e-11 5.7596e-10 -1.66169e-09 -4.91396e-11 1.00525e-09 -9.66041e-10 -1.98216e-11 5.75948e-10 7.73091 5.47488 0.417314 -9.66047e-10 -1.98085e-11 5.75957e-10 2.90554 0.965183 0.102902 -9.66045e-10 -1.98191e-11 5.75963e-10 10.2786 0.731801 0.0259123 -9.66053e-10 -1.98117e-11 5.75973e-10 2.22167 -0.733487 -0.20892 1.28777e-13 -1.15394e-12 -1.49536e-13 -81.7504 6.91789 4.88175 13.8777 -6.85166 -25.3056 0.0104849 -2.92226 0.411056 -2.19641e-09 1.6294e-10 -1.23868e-09 -3.797e-09 2.82767e-10 -2.14196e-09 -2.19642e-09 1.62937e-10 -1.23869e-09 -7.73091 5.47488 -0.417314 -2.19641e-09 1.62936e-10 -1.23868e-09 -2.90554 0.965183 -0.102902 -2.19642e-09 1.62934e-10 -1.23868e-09 -10.2786 0.731801 -0.0259123 -2.1964e-09 1.62933e-10 -1.23868e-09 -2.22167 -0.733487 0.20892 -2.03217e-16 0.0 -3.88251e-19 -5.18803 -13.3943 13.5005 -0.0782906 24.5702 0.412275 -5.06206 -9.16612 -19.9226 2.03217e-16 0.0 3.88251e-19 0.336047 -9.42109 -12.2329 0.0779325 18.5633 -0.310196 1.36929 -12.4619 3.5175
57.666 84.0533 -86.0802 8.7964 76.6129 12.4844 -9.04659 -3.77694 -3.42497 2.56032 2.80315 -0.893879 -11.9871 20.3588 -21.5074 29.2046 -8.30729 -39.0878 -0.0 0.0 0.0 -0.0 0.0 0.0 1.08981e-13 -9.79151e-13 -1.59825e-13 77.1737 4.83843 1.20934 -12.6147 -5.71622 22.9944 -0.269017 14.1616 2.03499 -7.8345e-10 1.30646e-10 3.43981e-10 -1.34919e-09 2.12617e-10 6.02842e-10 -7.83446e-10 1.30641e-10 3.43968e-10 7.73091 5.47488 0.417314 -7.83451e-10 1.30655e-10 3.4398e-10 2.90554 0.965183 0.102902 -7.83448e-10 1.30646e-10 3.43984e-10 10.2786 0.731801 0.0259123 -7.83457e-10 1.30653e-10 3.43993e-10 2.22167 -0.733487 -0.20892 1.08935e-13 -9.79143e-13 -1.59981e-13 -87.6259 7.31309 5.16191 14.6302 -7.22723 -27.1201 0.0132617 -3.17997 0.447412 -1.77118e-09 1.64752e-10 -9.08375e-10 -3.06228e-09 2.86602e-10 -1.57054e-09 -1.77119e-09 1.64751e-10 -9.08382e-10 -7.73091 5.47488 -0.417314 -1.77118e-09 1.6475e-10 -9.08376e-10 -2.90554 0.965183 -0.102902 -1.77119e-09 1.64748e-10 -9.08379e-10 -10.2786 0.731801 -0.0259123 -1.77118e-09 1.64748e-10 -9.08378e-10 -2.22167 -0.733487 0.20892 -2.03217e-16 0.0 -3.88251e-19 -5.41391 -13.9436 14.5291 -0.0970206 26.0978 0.447693 -5.67856 -9.84317 -21.3922 2.03217e-16 0.0 3.88251e-19 0.299025 -9.87268 -13.0633 0.0933527 19.9609 -0.339773 1.4877 -13.61 3.72316
